<svg width="100" height="66" viewBox="0 0 100 66" fill="none" xmlns="http://www.w3.org/2000/svg">
<path d="M51.8937 40.8949C64.388 48.03 89.5102 62.3003 89.5102 62.3003C93.3186 65.009 96.8597 65.9339 100 66L100 11.8258C99.7996 3.23724 95.323 6.14304e-07 89.8442 1.33392e-06L41.003 7.74901e-06L41.003 22.7928C41.003 22.7928 40.268 34.2883 51.9605 40.8949L51.8937 40.8949Z" fill="#D2232A"/>
<path d="M58.3769 22.9021V0.169922H10.0641C4.52892 0.169922 0 4.11151 0 12.6253V65.9989C3.09539 65.95 6.64742 65.0196 10.3821 62.3262C10.3821 62.3262 35.1729 48.0735 47.5578 40.9725C57.8094 35.1033 58.3851 25.431 58.3851 23.3176C58.3851 23.0488 58.3769 22.9037 58.3769 22.9037V22.9021Z" fill="url(#paint0_linear_2773_50401)"/>
<defs>
<linearGradient id="paint0_linear_2773_50401" x1="52.4954" y1="73.3879" x2="-22.2612" y2="31.9022" gradientUnits="userSpaceOnUse">
<stop stop-color="#FFB490"/>
<stop offset="0.446877" stop-color="#F18477"/>
<stop offset="1" stop-color="#D2232A"/>
</linearGradient>
</defs>
</svg>
