<svg width="26" height="25" viewBox="0 0 26 25" fill="none" xmlns="http://www.w3.org/2000/svg">
<path d="M20.8762 20.3318C20.8762 20.6916 20.7967 21.0625 20.6266 21.4222C20.4531 21.7939 20.2253 22.1375 19.9508 22.4415C19.4628 22.9812 18.9261 23.3698 18.3166 23.6208C17.7203 23.8717 17.0732 24.0005 16.3775 24.0005C15.3616 24.0005 14.2773 23.7607 13.1311 23.2721C11.9194 22.7438 10.771 22.0793 9.70798 21.2912C8.55182 20.4419 7.46072 19.5066 6.44387 18.493C5.43782 17.4762 4.50982 16.3841 3.66783 15.2263C2.89403 14.1667 2.23928 13.0242 1.71554 11.8196C1.23851 10.676 1 9.58778 1 8.55069C1 7.87113 1.11926 7.22267 1.35777 6.62307C1.59629 6.01236 1.97614 5.45272 2.50396 4.95305C3.14 4.32236 3.83567 4.01367 4.5733 4.01367C4.85156 4.01367 5.12983 4.07363 5.37939 4.19355C5.63778 4.31347 5.86525 4.49336 6.04634 4.75319L8.3564 8.02215C8.53308 8.27087 8.66558 8.50183 8.75392 8.72169C8.84226 8.93044 8.89306 9.14141 8.89306 9.33017C8.89019 9.58206 8.81753 9.82816 8.68325 10.0408C8.5299 10.3008 8.34274 10.539 8.12672 10.7492L7.36921 11.5398C7.31652 11.5917 7.27516 11.654 7.24778 11.7228C7.22041 11.7917 7.20761 11.8655 7.2102 11.9396C7.2102 12.0173 7.22125 12.0884 7.24112 12.1683C7.26983 12.2483 7.30075 12.3082 7.32063 12.3682C7.49731 12.6991 7.80649 13.1277 8.24597 13.6473C8.69429 14.167 9.17132 14.6978 9.6881 15.2263C10.227 15.7571 10.7437 16.2456 11.2716 16.6964C11.7884 17.1339 12.2168 17.4337 12.5547 17.6136L12.7358 17.6958C12.8151 17.7242 12.8989 17.7378 12.9831 17.7358C13.0593 17.7374 13.135 17.723 13.2054 17.6936C13.2757 17.6642 13.3392 17.6203 13.3917 17.5648L14.147 16.8141C14.3965 16.5654 14.6351 16.3767 14.8647 16.2545C15.076 16.1192 15.321 16.0468 15.5715 16.0458C15.7805 16.0489 15.9869 16.0934 16.1788 16.1768C16.3974 16.2656 16.6271 16.3944 16.8744 16.5654L20.1695 18.915C20.4082 19.0712 20.5981 19.2921 20.7172 19.5523C20.8204 19.7992 20.8744 20.064 20.8762 20.3318V20.3318Z" stroke="#36080A" stroke-miterlimit="10"/>
<path d="M12.9004 4.77148C17.2033 4.20513 21.1408 7.24805 21.704 11.5749" stroke="#36080A" stroke-linecap="round" stroke-linejoin="round"/>
<path d="M12.4688 1.45898C18.5892 0.653401 24.1983 4.98805 24.9994 11.1426" stroke="#36080A" stroke-linecap="round" stroke-linejoin="round"/>
</svg>
