<svg width="24" height="24" viewBox="0 0 24 24" fill="none" xmlns="http://www.w3.org/2000/svg">
<mask id="path-1-inside-1_232_33083" fill="white">
<path d="M13.1026 24.0006C12.9168 24.0006 12.7211 23.9698 12.5451 23.9082L4.10476 20.9701C3.81136 20.8673 3.49849 20.8981 3.22465 21.0419L0.535142 22.4289C0.349321 22.5213 0.124371 22.4391 0.0363505 22.2542C-0.0516698 22.059 0.0264941 21.8227 0.202535 21.7303L2.89204 20.3434C3.33215 20.1071 3.87003 20.066 4.33947 20.2304L12.7798 23.1685C12.9754 23.2404 13.1904 23.2404 13.386 23.1788L13.7871 23.0658C14.0316 22.9939 14.2565 22.8808 14.4521 22.7268L22.9705 16.08C23.1954 15.9054 23.303 15.5972 23.2346 15.3095L23.1565 14.9705C23.1076 14.7445 22.9118 14.5904 22.6868 14.5904C22.6477 14.5904 22.6087 14.6006 22.5696 14.6212L14.5109 19.8606C14.3935 19.9325 14.2564 19.9427 14.1391 19.8606L11.2247 18.1757C11.0486 18.073 10.9802 17.8367 11.078 17.6415C11.1758 17.4566 11.4008 17.3847 11.5866 17.4874L14.3055 19.0592L22.1785 13.9432C22.3252 13.8405 22.501 13.7891 22.6868 13.7891C23.2541 13.7891 23.7433 14.1897 23.8802 14.765L23.9583 15.1041C24.0952 15.6999 23.8898 16.3266 23.4203 16.6964L14.902 23.3432C14.6281 23.5589 14.3152 23.713 13.9827 23.8157L13.5818 23.9287C13.4253 23.9801 13.2591 24.0006 13.1026 24.0006V24.0006Z"/>
</mask>
<path d="M13.1026 24.0006C12.9168 24.0006 12.7211 23.9698 12.5451 23.9082L4.10476 20.9701C3.81136 20.8673 3.49849 20.8981 3.22465 21.0419L0.535142 22.4289C0.349321 22.5213 0.124371 22.4391 0.0363505 22.2542C-0.0516698 22.059 0.0264941 21.8227 0.202535 21.7303L2.89204 20.3434C3.33215 20.1071 3.87003 20.066 4.33947 20.2304L12.7798 23.1685C12.9754 23.2404 13.1904 23.2404 13.386 23.1788L13.7871 23.0658C14.0316 22.9939 14.2565 22.8808 14.4521 22.7268L22.9705 16.08C23.1954 15.9054 23.303 15.5972 23.2346 15.3095L23.1565 14.9705C23.1076 14.7445 22.9118 14.5904 22.6868 14.5904C22.6477 14.5904 22.6087 14.6006 22.5696 14.6212L14.5109 19.8606C14.3935 19.9325 14.2564 19.9427 14.1391 19.8606L11.2247 18.1757C11.0486 18.073 10.9802 17.8367 11.078 17.6415C11.1758 17.4566 11.4008 17.3847 11.5866 17.4874L14.3055 19.0592L22.1785 13.9432C22.3252 13.8405 22.501 13.7891 22.6868 13.7891C23.2541 13.7891 23.7433 14.1897 23.8802 14.765L23.9583 15.1041C24.0952 15.6999 23.8898 16.3266 23.4203 16.6964L14.902 23.3432C14.6281 23.5589 14.3152 23.713 13.9827 23.8157L13.5818 23.9287C13.4253 23.9801 13.2591 24.0006 13.1026 24.0006V24.0006Z" fill="#36080A"/>
<path d="M12.5451 23.9082L12.8755 22.9644L12.8738 22.9638L12.5451 23.9082ZM4.10476 20.9701L3.77429 21.9139L3.776 21.9145L4.10476 20.9701ZM3.22465 21.0419L3.68299 21.9307L3.68963 21.9273L3.22465 21.0419ZM0.535142 22.4289L0.980614 23.3241L0.987064 23.3209L0.993468 23.3176L0.535142 22.4289ZM0.0363505 22.2542L-0.875248 22.6653L-0.871009 22.6747L-0.866577 22.684L0.0363505 22.2542ZM0.202535 21.7303L-0.255804 20.8415L-0.262447 20.845L0.202535 21.7303ZM2.89204 20.3434L3.35037 21.2321L3.35775 21.2283L3.36507 21.2244L2.89204 20.3434ZM4.33947 20.2304L4.009 21.1742L4.01071 21.1748L4.33947 20.2304ZM12.7798 23.1685L13.1248 22.2299L13.1167 22.2269L13.1085 22.2241L12.7798 23.1685ZM13.386 23.1788L13.1149 22.2162L13.1001 22.2204L13.0854 22.225L13.386 23.1788ZM13.7871 23.0658L14.0583 24.0284L14.0693 24.0252L13.7871 23.0658ZM14.4521 22.7268L13.8369 21.9383L13.8333 21.9412L14.4521 22.7268ZM22.9705 16.08L22.3572 15.2901L22.3553 15.2916L22.9705 16.08ZM23.2346 15.3095L22.26 15.534L22.2617 15.5411L23.2346 15.3095ZM23.1565 14.9705L22.179 15.182L22.182 15.1949L23.1565 14.9705ZM22.5696 14.6212L22.1046 13.7359L22.0635 13.7575L22.0245 13.7828L22.5696 14.6212ZM14.5109 19.8606L15.0333 20.7132L15.0447 20.7062L15.0559 20.6989L14.5109 19.8606ZM14.1391 19.8606L14.7127 19.0414L14.6771 19.0165L14.6396 18.9948L14.1391 19.8606ZM11.2247 18.1757L10.7206 19.0394L10.7242 19.0415L11.2247 18.1757ZM11.078 17.6415L10.1941 17.174L10.1889 17.1837L10.184 17.1935L11.078 17.6415ZM11.5866 17.4874L12.0871 16.6217L12.0788 16.6169L12.0705 16.6123L11.5866 17.4874ZM14.3055 19.0592L13.805 19.925L14.3361 20.2319L14.8504 19.8977L14.3055 19.0592ZM22.1785 13.9432L22.7234 14.7817L22.7379 14.7723L22.7521 14.7623L22.1785 13.9432ZM23.8802 14.765L24.8547 14.5406L24.853 14.5335L23.8802 14.765ZM23.9583 15.1041L24.9329 14.8801L24.9328 14.8796L23.9583 15.1041ZM23.4203 16.6964L24.0355 17.4848L24.0392 17.4819L23.4203 16.6964ZM14.902 23.3432L14.2868 22.5548L14.2831 22.5577L14.902 23.3432ZM13.9827 23.8157L14.254 24.7782L14.266 24.7748L14.2779 24.7711L13.9827 23.8157ZM13.5818 23.9287L13.3105 22.9662L13.2901 22.972L13.2699 22.9786L13.5818 23.9287ZM13.1026 23.0006C13.0207 23.0006 12.9375 22.9861 12.8755 22.9644L12.2146 24.852C12.5047 24.9536 12.8128 25.0006 13.1026 25.0006V23.0006ZM12.8738 22.9638L4.43352 20.0257L3.776 21.9145L12.2163 24.8526L12.8738 22.9638ZM4.43523 20.0263C3.86326 19.826 3.26288 19.8923 2.75967 20.1566L3.68963 21.9273C3.71353 21.9147 3.73176 21.9108 3.74308 21.9099C3.75365 21.909 3.76324 21.91 3.77429 21.9139L4.43523 20.0263ZM2.76633 20.1531L0.0768162 21.5401L0.993468 23.3176L3.68298 21.9307L2.76633 20.1531ZM0.0896698 21.5336C0.418902 21.3697 0.794012 21.5193 0.939279 21.8244L-0.866577 22.684C-0.54527 23.359 0.27974 23.6729 0.980614 23.3241L0.0896698 21.5336ZM0.947949 21.8431C1.0123 21.9858 1.01267 22.1346 0.972453 22.2597C0.93279 22.3831 0.838818 22.5256 0.667516 22.6156L-0.262447 20.845C-0.940163 21.2009 -1.16491 22.023 -0.875248 22.6653L0.947949 21.8431ZM0.66086 22.6191L3.35037 21.2321L2.43372 19.4546L-0.255791 20.8415L0.66086 22.6191ZM3.36507 21.2244C3.55734 21.1212 3.80364 21.1023 4.009 21.1742L4.66994 19.2866C3.93642 19.0297 3.10695 19.093 2.41902 19.4623L3.36507 21.2244ZM4.01071 21.1748L12.451 24.1129L13.1085 22.2241L4.66823 19.286L4.01071 21.1748ZM12.4347 24.1071C12.8522 24.2606 13.295 24.2559 13.6866 24.1325L13.0854 22.225C13.0873 22.2244 13.0902 22.2237 13.0954 22.2238C13.1009 22.2239 13.1111 22.2249 13.1248 22.2299L12.4347 24.1071ZM13.6571 24.1413L14.0583 24.0283L13.516 22.1032L13.1149 22.2162L13.6571 24.1413ZM14.0693 24.0252C14.4273 23.9199 14.7683 23.7507 15.071 23.5123L13.8333 21.9412C13.7447 22.011 13.636 22.0679 13.505 22.1064L14.0693 24.0252ZM15.0673 23.5151L23.5857 16.8684L22.3553 15.2916L13.8369 21.9384L15.0673 23.5151ZM23.5837 16.8699C24.1268 16.4483 24.3642 15.7369 24.2074 15.078L22.2617 15.5411C22.2501 15.4923 22.2545 15.448 22.2671 15.4114C22.2796 15.3752 22.306 15.3299 22.3572 15.2901L23.5837 16.8699ZM24.2091 15.0851L24.131 14.7461L22.182 15.1949L22.2601 15.534L24.2091 15.0851ZM24.1339 14.759C23.9845 14.0688 23.3783 13.5904 22.6868 13.5904V15.5904C22.4452 15.5904 22.2307 15.4202 22.1791 15.182L24.1339 14.759ZM22.6868 13.5904C22.4657 13.5904 22.2684 13.6499 22.1046 13.7359L23.0346 15.5065C22.9491 15.5514 22.8297 15.5904 22.6868 15.5904V13.5904ZM22.0245 13.7828L13.9658 19.0222L15.0559 20.6989L23.1147 15.4596L22.0245 13.7828ZM13.9884 19.0079C14.0576 18.9655 14.1652 18.9214 14.3048 18.9185C14.4525 18.9156 14.597 18.9604 14.7127 19.0414L13.5655 20.6797C14.0727 21.0349 14.6482 20.9492 15.0333 20.7132L13.9884 19.0079ZM14.6396 18.9948L11.7251 17.31L10.7242 19.0415L13.6386 20.7263L14.6396 18.9948ZM11.7287 17.312C12.0348 17.4907 12.0966 17.841 11.9721 18.0895L10.184 17.1935C9.86389 17.8324 10.0624 18.6553 10.7206 19.0394L11.7287 17.312ZM11.962 18.109C11.8064 18.4033 11.4218 18.539 11.1028 18.3626L12.0705 16.6123C11.3798 16.2304 10.5453 16.5099 10.1941 17.174L11.962 18.109ZM11.0861 18.3532L13.805 19.925L14.806 18.1935L12.0871 16.6217L11.0861 18.3532ZM14.8504 19.8977L22.7234 14.7817L21.6336 13.1047L13.7606 18.2207L14.8504 19.8977ZM22.7521 14.7623C22.7352 14.7742 22.7187 14.7814 22.7057 14.7853C22.693 14.7891 22.6861 14.7891 22.6868 14.7891V12.7891C22.3153 12.7891 21.935 12.8929 21.6049 13.1241L22.7521 14.7623ZM22.6868 14.7891C22.7622 14.7891 22.8709 14.8431 22.9074 14.9966L24.853 14.5335C24.6157 13.5363 23.746 12.7891 22.6868 12.7891V14.7891ZM22.9057 14.9894L22.9838 15.3285L24.9328 14.8796L24.8547 14.5406L22.9057 14.9894ZM22.9837 15.328C23.0395 15.5711 22.948 15.7954 22.8015 15.9109L24.0392 17.4819C24.8315 16.8577 25.1509 15.8287 24.9329 14.8801L22.9837 15.328ZM22.8052 15.908L14.2868 22.5548L15.5171 24.1316L24.0355 17.4848L22.8052 15.908ZM14.2831 22.5577C14.1192 22.6868 13.9201 22.7884 13.6875 22.8603L14.2779 24.7711C14.7104 24.6375 15.137 24.431 15.5208 24.1287L14.2831 22.5577ZM13.7114 22.8532L13.3105 22.9662L13.8531 24.8912L14.254 24.7782L13.7114 22.8532ZM13.2699 22.9786C13.2339 22.9904 13.1762 23.0006 13.1026 23.0006V25.0006C13.3419 25.0006 13.6167 24.9697 13.8937 24.8788L13.2699 22.9786Z" fill="#36080A" mask="url(#path-1-inside-1_232_33083)"/>
<mask id="path-3-inside-2_232_33083" fill="white">
<path d="M11.4117 18.2148L9.4361 18.1429C9.23072 18.1429 9.07413 17.958 9.07413 17.7422C9.07413 17.5265 9.26008 17.3416 9.45568 17.3621L11.4117 17.4341L16.243 17.3519C16.507 17.3519 16.7222 17.1361 16.7516 16.8588L16.7907 16.3245C16.8103 16.0883 16.6537 15.8828 16.4287 15.852L7.11812 14.6089C6.9323 14.5884 6.74642 14.6089 6.57038 14.6603L1.15244 16.6019C0.956838 16.6739 0.741458 16.5608 0.682777 16.3553C0.614317 16.1499 0.721888 15.9341 0.917489 15.8622L6.34546 13.9206C6.62908 13.8179 6.92261 13.7871 7.21601 13.8282L16.5266 15.0712C17.1428 15.1534 17.5927 15.7287 17.534 16.3862L17.4948 16.9204C17.4362 17.5984 16.908 18.1224 16.2625 18.1326L11.4117 18.2148V18.2148Z"/>
</mask>
<path d="M11.4117 18.2148L9.4361 18.1429C9.23072 18.1429 9.07413 17.958 9.07413 17.7422C9.07413 17.5265 9.26008 17.3416 9.45568 17.3621L11.4117 17.4341L16.243 17.3519C16.507 17.3519 16.7222 17.1361 16.7516 16.8588L16.7907 16.3245C16.8103 16.0883 16.6537 15.8828 16.4287 15.852L7.11812 14.6089C6.9323 14.5884 6.74642 14.6089 6.57038 14.6603L1.15244 16.6019C0.956838 16.6739 0.741458 16.5608 0.682777 16.3553C0.614317 16.1499 0.721888 15.9341 0.917489 15.8622L6.34546 13.9206C6.62908 13.8179 6.92261 13.7871 7.21601 13.8282L16.5266 15.0712C17.1428 15.1534 17.5927 15.7287 17.534 16.3862L17.4948 16.9204C17.4362 17.5984 16.908 18.1224 16.2625 18.1326L11.4117 18.2148V18.2148Z" fill="#36080A"/>
<path d="M9.4361 18.1429L9.47245 17.1436L9.45428 17.1429H9.4361V18.1429ZM9.45568 17.3621L9.35121 18.3567L9.38499 18.3602L9.41894 18.3615L9.45568 17.3621ZM11.4117 17.4341L11.3749 18.4334L11.4018 18.4344L11.4287 18.4339L11.4117 17.4341ZM16.243 17.3519V16.3519H16.2345L16.226 16.352L16.243 17.3519ZM16.7516 16.8588L17.746 16.964L17.7477 16.9479L17.7489 16.9319L16.7516 16.8588ZM16.7907 16.3245L15.7941 16.242L15.7934 16.2514L16.7907 16.3245ZM16.4287 15.852L16.5645 14.8612L16.5611 14.8607L16.4287 15.852ZM7.11812 14.6089L7.25045 13.6177L7.23925 13.6162L7.22802 13.615L7.11812 14.6089ZM6.57038 14.6603L6.29027 13.7003L6.26136 13.7088L6.23302 13.7189L6.57038 14.6603ZM1.15244 16.6019L0.815064 15.6605L0.807372 15.6634L1.15244 16.6019ZM0.682777 16.3553L1.64433 16.0807L1.63837 16.0598L1.6315 16.0392L0.682777 16.3553ZM0.917489 15.8622L0.580664 14.9206L0.572422 14.9237L0.917489 15.8622ZM6.34546 13.9206L6.68227 14.8622L6.68602 14.8608L6.34546 13.9206ZM7.21601 13.8282L7.07731 14.8185L7.08368 14.8194L7.21601 13.8282ZM16.5266 15.0712L16.3943 16.0624L16.3944 16.0624L16.5266 15.0712ZM17.534 16.3862L16.538 16.2973L16.5373 16.3052L16.5367 16.3131L17.534 16.3862ZM17.4948 16.9204L18.4912 17.0066L18.4922 16.9935L17.4948 16.9204ZM16.2625 18.1326L16.2466 17.1328L16.2456 17.1328L16.2625 18.1326ZM11.448 17.2154L9.47245 17.1436L9.39975 19.1423L11.3753 19.2141L11.448 17.2154ZM9.4361 17.1429C9.8938 17.1429 10.0741 17.5234 10.0741 17.7422H8.07413C8.07413 18.3925 8.56764 19.1429 9.4361 19.1429V17.1429ZM10.0741 17.7422C10.0741 17.921 9.99948 18.0703 9.8971 18.1723C9.79635 18.2726 9.60649 18.3835 9.35121 18.3567L9.56015 16.3676C8.67713 16.2749 8.07413 17.035 8.07413 17.7422H10.0741ZM9.41894 18.3615L11.3749 18.4334L11.4484 16.4347L9.49242 16.3628L9.41894 18.3615ZM11.4287 18.4339L16.26 18.3517L16.226 16.352L11.3947 16.4342L11.4287 18.4339ZM16.243 18.3519C17.0926 18.3519 17.671 17.6729 17.746 16.964L15.7571 16.7536C15.7734 16.5993 15.9215 16.3519 16.243 16.3519V18.3519ZM17.7489 16.9319L17.788 16.3976L15.7934 16.2514L15.7542 16.7857L17.7489 16.9319ZM17.7873 16.407C17.8472 15.684 17.3576 14.9699 16.5645 14.8612L16.293 16.8427C15.9498 16.7957 15.7734 16.4926 15.7941 16.242L17.7873 16.407ZM16.5611 14.8607L7.25045 13.6177L6.98579 15.6001L16.2964 16.8432L16.5611 14.8607ZM7.22802 13.615C6.89704 13.5784 6.57835 13.6163 6.29027 13.7003L6.85048 15.6203C6.91449 15.6016 6.96755 15.5984 7.00822 15.6029L7.22802 13.615ZM6.23302 13.7189L0.815075 15.6606L1.4898 17.5433L6.90774 15.6017L6.23302 13.7189ZM0.807372 15.6634C1.18187 15.5257 1.55055 15.7523 1.64433 16.0807L-0.278776 16.6299C-0.0676307 17.3693 0.731811 17.822 1.49751 17.5405L0.807372 15.6634ZM1.6315 16.0392C1.73469 16.3489 1.57159 16.6872 1.26256 16.8008L0.572422 14.9237C-0.127813 15.1811 -0.50606 15.9508 -0.265944 16.6714L1.6315 16.0392ZM1.2543 16.8038L6.68227 14.8622L6.00865 12.979L0.580677 14.9207L1.2543 16.8038ZM6.68602 14.8608C6.818 14.813 6.94708 14.8003 7.07731 14.8185L7.35472 12.8378C6.89815 12.7739 6.44016 12.8227 6.00489 12.9804L6.68602 14.8608ZM7.08368 14.8194L16.3943 16.0624L16.659 14.08L7.34835 12.837L7.08368 14.8194ZM16.3944 16.0624C16.4476 16.0695 16.552 16.1399 16.538 16.2973L18.53 16.4751C18.6334 15.3175 17.838 14.2372 16.6588 14.08L16.3944 16.0624ZM16.5367 16.3131L16.4975 16.8473L18.4922 16.9935L18.5313 16.4593L16.5367 16.3131ZM16.4986 16.8342C16.4797 17.0527 16.3295 17.1314 16.2466 17.1328L16.2785 19.1325C17.4866 19.1133 18.3927 18.1441 18.4911 17.0066L16.4986 16.8342ZM16.2456 17.1328L11.3948 17.2149L11.4286 19.2146L16.2795 19.1325L16.2456 17.1328Z" fill="#36080A" mask="url(#path-3-inside-2_232_33083)"/>
<mask id="path-5-inside-3_232_33083" fill="white">
<path d="M16.0959 15.802C15.9492 15.802 15.8124 15.7096 15.7537 15.5555C15.6755 15.35 15.7732 15.124 15.959 15.0521L19.5776 13.5419C19.8612 13.4392 20.1645 13.4392 20.4384 13.5419C21.035 13.7576 21.4262 14.3535 21.4262 15.011V15.1342C21.4262 15.35 21.2598 15.5246 21.0544 15.5246C20.849 15.5246 20.6829 15.35 20.6829 15.1342V15.011C20.6829 14.6822 20.4873 14.3946 20.1939 14.2816C20.0765 14.2405 19.9493 14.2405 19.8417 14.2816L16.2329 15.7814C16.2329 15.7814 16.1448 15.8123 16.0959 15.8123V15.802Z"/>
</mask>
<path d="M16.0959 15.802C15.9492 15.802 15.8124 15.7096 15.7537 15.5555C15.6755 15.35 15.7732 15.124 15.959 15.0521L19.5776 13.5419C19.8612 13.4392 20.1645 13.4392 20.4384 13.5419C21.035 13.7576 21.4262 14.3535 21.4262 15.011V15.1342C21.4262 15.35 21.2598 15.5246 21.0544 15.5246C20.849 15.5246 20.6829 15.35 20.6829 15.1342V15.011C20.6829 14.6822 20.4873 14.3946 20.1939 14.2816C20.0765 14.2405 19.9493 14.2405 19.8417 14.2816L16.2329 15.7814C16.2329 15.7814 16.1448 15.8123 16.0959 15.8123V15.802Z" fill="#36080A"/>
<path d="M16.0959 15.802H17.0959V14.802H16.0959V15.802ZM15.7537 15.5555L16.6882 15.1996L15.7537 15.5555ZM15.959 15.0521L16.32 15.9847L16.3321 15.98L16.3442 15.9749L15.959 15.0521ZM19.5776 13.5419L19.237 12.6017L19.2145 12.6098L19.1925 12.619L19.5776 13.5419ZM20.4384 13.5419L20.0871 14.4782L20.0983 14.4823L20.4384 13.5419ZM20.1939 14.2816L20.5533 13.3484L20.5389 13.3429L20.5243 13.3378L20.1939 14.2816ZM19.8417 14.2816L19.4849 13.3474L19.4713 13.3526L19.4579 13.3582L19.8417 14.2816ZM16.2329 15.7814L16.5632 16.7253L16.5903 16.7159L16.6167 16.7049L16.2329 15.7814ZM16.0959 15.8123H15.0959V16.8123H16.0959V15.8123ZM16.0959 14.802C16.3842 14.802 16.6065 14.9849 16.6882 15.1996L14.8192 15.9113C15.0183 16.4342 15.5142 16.802 16.0959 16.802V14.802ZM16.6882 15.1996C16.7889 15.4638 16.6905 15.8413 16.32 15.9847L15.5981 14.1195C14.8559 14.4067 14.5621 15.2362 14.8192 15.9113L16.6882 15.1996ZM16.3442 15.9749L19.9628 14.4647L19.1925 12.619L15.5739 14.1292L16.3442 15.9749ZM19.9182 14.4821C19.9857 14.4576 20.0436 14.4618 20.0871 14.4782L20.7896 12.6056C20.2855 12.4165 19.7367 12.4207 19.237 12.6017L19.9182 14.4821ZM20.0983 14.4823C20.264 14.5422 20.4262 14.7364 20.4262 15.011H22.4262C22.4262 13.9705 21.8059 12.973 20.7784 12.6015L20.0983 14.4823ZM20.4262 15.011V15.1342H22.4262V15.011H20.4262ZM20.4262 15.1342C20.4262 14.8442 20.6621 14.5246 21.0544 14.5246V16.5246C21.8575 16.5246 22.4262 15.8557 22.4262 15.1342H20.4262ZM21.0544 14.5246C21.4475 14.5246 21.6829 14.845 21.6829 15.1342H19.6829C19.6829 15.8549 20.2505 16.5246 21.0544 16.5246V14.5246ZM21.6829 15.1342V15.011H19.6829V15.1342H21.6829ZM21.6829 15.011C21.6829 14.2834 21.2463 13.6153 20.5533 13.3484L19.8345 15.2148C19.7283 15.1739 19.6829 15.081 19.6829 15.011H21.6829ZM20.5243 13.3378C20.2031 13.2253 19.8315 13.215 19.4849 13.3474L20.1985 15.2158C20.0671 15.266 19.9499 15.2557 19.8634 15.2254L20.5243 13.3378ZM19.4579 13.3582L15.8491 14.858L16.6167 16.7049L20.2255 15.205L19.4579 13.3582ZM16.2329 15.7814C15.9026 14.8376 15.9027 14.8375 15.9028 14.8375C15.9028 14.8375 15.9029 14.8375 15.9029 14.8375C15.903 14.8374 15.9031 14.8374 15.9032 14.8374C15.9034 14.8373 15.9036 14.8372 15.9038 14.8371C15.9042 14.837 15.9046 14.8369 15.905 14.8367C15.9057 14.8365 15.9064 14.8363 15.907 14.8361C15.9082 14.8356 15.9092 14.8353 15.91 14.835C15.9116 14.8345 15.9127 14.8341 15.9133 14.8339C15.9141 14.8337 15.9155 14.8332 15.9185 14.8324C15.9202 14.832 15.9315 14.8288 15.9503 14.8252C15.9613 14.8231 16.017 14.8123 16.0959 14.8123V16.8123C16.2684 16.8123 16.4187 16.7691 16.447 16.7613C16.4781 16.7528 16.5046 16.7446 16.5234 16.7386C16.5331 16.7355 16.5414 16.7327 16.5481 16.7305C16.5514 16.7294 16.5543 16.7284 16.5569 16.7275C16.5581 16.7271 16.5593 16.7267 16.5604 16.7263C16.5609 16.7261 16.5614 16.726 16.5619 16.7258C16.5621 16.7257 16.5623 16.7256 16.5626 16.7255C16.5627 16.7255 16.5628 16.7255 16.5629 16.7254C16.563 16.7254 16.563 16.7254 16.5631 16.7254C16.5631 16.7253 16.5632 16.7253 16.2329 15.7814ZM17.0959 15.8123V15.802H15.0959V15.8123H17.0959Z" fill="#36080A" mask="url(#path-5-inside-3_232_33083)"/>
<path d="M12.0448 12.6892C11.9665 12.6892 11.8785 12.6583 11.8101 12.607C11.5851 12.422 6.41143 8.03537 5.62903 5.40543C5.19871 4.1932 5.31613 2.69331 5.94206 1.61462C6.47018 0.710583 7.28185 0.155853 8.30875 0.0325751C10.2159 -0.213982 11.4971 0.99823 12.0546 1.67626C12.612 0.99823 13.8835 -0.213982 15.8004 0.0325751C16.8175 0.166127 17.639 0.710583 18.1671 1.61462C18.793 2.70358 18.9104 4.19322 18.4703 5.426C17.6977 8.03539 12.5142 12.422 12.2893 12.607C12.2208 12.6686 12.1426 12.6892 12.0546 12.6892H12.0448ZM8.78796 0.772215C8.66082 0.772215 8.52399 0.772245 8.38707 0.803064C7.3895 0.926343 6.8515 1.53245 6.56787 2.01529C6.05931 2.88851 5.96151 4.1521 6.32337 5.1486C6.95908 7.27516 11.0179 10.9016 12.035 11.7953C13.0521 10.9016 17.1109 7.27518 17.7466 5.16917C18.1085 4.15213 18.0107 2.88851 17.5021 2.01529C17.2185 1.53245 16.6805 0.926343 15.6829 0.803064C13.59 0.535962 12.3969 2.44677 12.348 2.52895C12.2796 2.64196 12.1621 2.71386 12.035 2.71386C11.9079 2.71386 11.7904 2.64196 11.722 2.52895C11.6731 2.45704 10.6364 0.782498 8.78796 0.782498V0.772215Z" fill="#36080A"/>
</svg>
