<svg width="100" height="66" viewBox="0 0 100 66" fill="none" xmlns="http://www.w3.org/2000/svg">
<path d="M99.9937 30.2113L99.9939 0H59.692C55.0746 0 51.2966 3.2732 51.2966 10.3433L51.2964 66C53.8785 65.9594 56.8416 65.1868 59.957 62.9501C59.957 62.9501 80.6372 51.1143 90.9685 45.2174C99.5202 40.3435 100 32.3113 100 30.5563C100 30.3331 99.9937 30.2126 99.9937 30.2126V30.2113Z" fill="url(#paint0_linear_2773_50416)"/>
<path d="M9.08004 45.2061C19.4876 51.116 40.4139 62.9356 40.4139 62.9356C43.5862 65.1792 46.5359 65.9453 49.1517 66L49.1517 9.87895C48.9848 2.76524 45.2559 0.0839238 40.6922 0.0839244L0.008255 0.0839297L0.00825902 30.2126C0.00825902 30.2126 -0.603949 39.734 9.1357 45.2061L9.08004 45.2061Z" fill="#D2232A"/>
<defs>
<linearGradient id="paint0_linear_2773_50416" x1="95.0874" y1="73.4082" x2="27.8549" y2="42.3651" gradientUnits="userSpaceOnUse">
<stop stop-color="#FFB490"/>
<stop offset="0.446877" stop-color="#F18477"/>
<stop offset="1" stop-color="#D2232A"/>
</linearGradient>
</defs>
</svg>
