<svg width="24" height="26" viewBox="0 0 24 26" fill="none" xmlns="http://www.w3.org/2000/svg">
<path d="M21 9.97007C21 15.2798 14.9435 22.3026 12.7729 24.6648C12.36 25.1117 11.6506 25.1117 11.2271 24.6648C9.04591 22.3132 2.98943 15.3117 3.00001 9.97007C3.00001 5.01152 7.03413 1 12 1C16.9659 1 21 5.02216 21 9.97007Z" stroke="#36080A" stroke-width="1.24" stroke-linecap="round" stroke-linejoin="round"/>
<path d="M12.0009 14.3758C14.34 14.3758 16.2362 12.4702 16.2362 10.1195C16.2362 7.76888 14.34 5.86328 12.0009 5.86328C9.66183 5.86328 7.76562 7.76888 7.76562 10.1195C7.76562 12.4702 9.66183 14.3758 12.0009 14.3758Z" stroke="#36080A" stroke-width="1.24" stroke-linecap="round" stroke-linejoin="round"/>
</svg>
