<?xml version="1.0" encoding="utf-8"?>
<!-- Generator: Adobe Illustrator 27.0.1, SVG Export Plug-In . SVG Version: 6.00 Build 0)  -->
<svg version="1.1" id="Layer_1" xmlns="http://www.w3.org/2000/svg" xmlns:xlink="http://www.w3.org/1999/xlink" x="0px" y="0px"
	 viewBox="0 0 40 40" style="enable-background:new 0 0 40 40;" xml:space="preserve">
<style type="text/css">
	.st0{fill:url(#SVGID_1_);}
	.st1{fill:#36080A;}
</style>
<g>
	<linearGradient id="SVGID_1_" gradientUnits="userSpaceOnUse" x1="22.9663" y1="30.8794" x2="17.5433" y2="18.6996">
		<stop  offset="0" style="stop-color:#FFB490"/>
		<stop  offset="0.5" style="stop-color:#F18477"/>
		<stop  offset="1" style="stop-color:#D2232A"/>
	</linearGradient>
	<path class="st0" d="M26.7,25.4c-0.8,2.5-6,6.5-6.5,7c-0.1,0.1-0.2,0.1-0.4,0.1c-0.1,0-0.2,0-0.4-0.1c-0.6-0.5-5.7-4.5-6.6-7
		c-0.5-1.2-0.3-2.7,0.3-3.8c0.6-0.9,1.5-1.6,2.7-1.7c1.9-0.2,3.3,1.3,3.9,2.3c0.7-1.1,2-2.5,3.9-2.3c1.1,0.1,2.1,0.7,2.7,1.7
		C27.1,22.7,27.2,24.2,26.7,25.4z"/>
	<path class="st1" d="M38.8,21.3c0.2-0.2,0.2-0.6,0-0.8l-4.7-4.7V4.1c0-0.3-0.3-0.6-0.6-0.6h-6.1c-0.3,0-0.6,0.3-0.6,0.6v4.3L23.4,5
		c0,0-0.1-0.1-0.1-0.1l-2.9-2.9c-0.1-0.1-0.2-0.1-0.3-0.2c-0.2,0-0.4,0-0.5,0.2l-2.9,2.9c0,0-0.1,0.1-0.1,0.1L1.2,20.5
		c-0.2,0.2-0.2,0.6,0,0.8L4,24.2c0.2,0.2,0.6,0.2,0.8,0l0.3-0.3v13.1h-2c-0.3,0-0.6,0.3-0.6,0.6s0.3,0.6,0.6,0.6h33.6
		c0.3,0,0.6-0.3,0.6-0.6s-0.3-0.6-0.6-0.6h-2V23.9l0.3,0.3c0.1,0.1,0.3,0.2,0.4,0.2l0,0c0.2,0,0.3-0.1,0.4-0.2L38.8,21.3z M28,4.7
		h4.9v9.9L28,9.6V4.7z M33.6,36.9H6.4V22.7L20,9.1l13.6,13.6V36.9z M20.4,7.8c-0.1-0.1-0.3-0.2-0.4-0.2l0,0c-0.2,0-0.3,0.1-0.4,0.2
		L5.5,22c-0.1,0-0.1,0.1-0.1,0.1L4.5,23l-2-2L17.6,5.8c0,0,0.1-0.1,0.1-0.1L20,3.3l2.4,2.4c0,0,0.1,0.1,0.1,0.1l4.5,4.5
		c0,0,0,0,0.1,0.1l6.1,6.1c0,0,0,0,0.1,0.1l4.4,4.4l-2,2L20.4,7.8z"/>
	<path class="st1" d="M26.4,21.6c-0.6-0.9-1.5-1.5-2.7-1.7c-1.9-0.2-3.3,1.2-3.9,2.3c-0.7-1-2-2.5-3.9-2.3c-1.2,0.1-2.1,0.7-2.7,1.7
		c-0.7,1.1-0.8,2.6-0.3,3.8c0.8,2.5,6,6.6,6.6,7c0.1,0.1,0.2,0.1,0.4,0.1c0.1,0,0.2,0,0.4-0.1c0.6-0.5,5.7-4.5,6.5-7
		C27.2,24.2,27.1,22.7,26.4,21.6z M25.6,25c-0.6,1.7-4.1,4.8-5.8,6.2c-1.7-1.4-5.2-4.4-5.8-6.2c-0.3-0.9-0.2-2,0.2-2.8
		c0.3-0.5,0.8-1,1.8-1.1h0.2l0,0c1.9,0,3,2.6,3,2.6c0.1,0.2,0.3,0.4,0.5,0.4c0.2,0,0.5-0.1,0.5-0.4c0,0,1.2-2.8,3.3-2.6
		c1,0.1,1.5,0.7,1.8,1.1C25.9,23,26,24.1,25.6,25z"/>
</g>
</svg>
