<?xml version="1.0" encoding="utf-8"?>
<!-- Generator: Adobe Illustrator 27.0.1, SVG Export Plug-In . SVG Version: 6.00 Build 0)  -->
<svg version="1.1" id="Layer_1" xmlns="http://www.w3.org/2000/svg" xmlns:xlink="http://www.w3.org/1999/xlink" x="0px" y="0px"
	 viewBox="0 0 40 40" style="enable-background:new 0 0 40 40;" xml:space="preserve">
<style type="text/css">
	.st0{fill:url(#SVGID_1_);}
	.st1{fill:#36080A;}
</style>
<g>
	
		<linearGradient id="SVGID_1_" gradientUnits="userSpaceOnUse" x1="-237.0025" y1="107.3815" x2="-248.0967" y2="112.1508" gradientTransform="matrix(1 0 0 -1 262 128.5)">
		<stop  offset="0" style="stop-color:#FFB490"/>
		<stop  offset="0.4469" style="stop-color:#F18477"/>
		<stop  offset="1" style="stop-color:#D2232A"/>
	</linearGradient>
	<path class="st0" d="M16.2,19.1L20,13l3.5,6.1c0,0,2.1,5.3-3.5,5.3C14.7,24.4,16.2,19.1,16.2,19.1z"/>
	<g>
		<path class="st1" d="M29.7,6.3c0-0.1,0-0.3-0.1-0.4c-0.1-0.1-0.2-0.2-0.4-0.2h-8.8V1h-0.9v4.8h-8.7c-0.1,0-0.3,0.1-0.4,0.2
			c-0.1,0.1-0.1,0.2-0.1,0.4l0.6,2.2c0,0,0,0,0,0v6.9c0,0,0,0,0,0v13.1c0,0.2,0.1,0.3,0.2,0.4l4,2.2v2.4c0,0.2,0.2,0.4,0.5,0.4h3.9
			v5h0.9v-5h3.9c0.2,0,0.5-0.2,0.5-0.4v-2.3l4.1-2.2c0.1,0,0.2-0.1,0.2-0.2c0,0,0-0.1,0-0.1c0,0,0,0,0,0c0,0,0,0,0,0V15.5
			c0,0,0,0,0,0V8.6L29.7,6.3z M19.9,13.4c0.2,0.2,0.3,0.5,0.5,0.9c0.9,1.5,2,3.5,2.6,5c0,0,0,0,0,0c0,0.1,0.1,0.2,0.1,0.4
			c0,0,0,0.1,0,0.1c0,0.1,0.1,0.2,0.1,0.3c0,0,0,0.1,0,0.1c0,0.1,0,0.2,0.1,0.3c0,0,0,0,0,0c0,0.1,0,0.2,0,0.3c0,0.9-0.4,1.8-1,2.4
			c-0.6,0.6-1.5,1-2.5,1c-2,0-3.6-1.5-3.6-3.4c0-0.2,0-0.5,0.1-0.8l0,0c0-0.2,0.1-0.3,0.2-0.5c0,0,0,0,0,0c0.1-0.4,0.3-0.8,0.5-1.2
			c0-0.1,0.1-0.2,0.1-0.2c0.1-0.1,0.1-0.2,0.2-0.4c0.2-0.4,0.5-0.9,0.7-1.3c0.1-0.1,0.1-0.2,0.2-0.3c0.1-0.2,0.2-0.4,0.3-0.5
			c0.1-0.1,0.1-0.2,0.2-0.3c0,0,0-0.1,0.1-0.1C19.3,14.3,19.7,13.8,19.9,13.4z M11.8,15.9h5.5c-0.5,1-1,2-1.4,2.9c0,0,0,0.1,0,0.1
			c-0.1,0.1-0.1,0.3-0.2,0.4c0,0.1,0,0.1-0.1,0.2c0,0.1-0.1,0.2-0.1,0.3c0,0.1,0,0.1,0,0.2c0,0.1,0,0.2-0.1,0.3c0,0,0,0.1,0,0.1
			c0,0.1,0,0.2,0,0.3c0,2.3,2,4.3,4.5,4.3c0.8,0,1.5-0.2,2.1-0.5c1.4-0.7,2.3-2.1,2.3-3.7c0-0.9-0.6-2.5-1.9-4.8h5.7v12.3H11.8V15.9
			z M22,15.1c-0.3-0.6-0.7-1.1-1-1.6c-0.4-0.7-0.7-1.1-0.7-1.1c-0.1-0.1-0.2-0.2-0.4-0.2c-0.2,0-0.3,0.1-0.4,0.2
			c-0.2,0.3-0.9,1.4-1.7,2.7h-6V9h16.3v6.1H22z M28.6,6.7l-0.4,1.4H11.7l-0.4-1.4H28.6z M16,33.2v-1.8h7.8v1.8H16z M24.2,30.5h-8.5
			l-2.6-1.4h13.8L24.2,30.5z"/>
		<polygon class="st1" points="19.9,25 19.9,25 19.9,25 		"/>
	</g>
</g>
</svg>
