<svg width="100" height="66" viewBox="0 0 100 66" fill="none" xmlns="http://www.w3.org/2000/svg">
<path d="M77.3467 11.5867L100 11.5867L100 56.6192C100 61.7786 96.0721 66 87.5879 66L34.3994 66C34.4481 63.1148 35.3753 59.8039 38.0594 56.3228C38.0594 56.3228 52.2626 33.2152 59.339 21.6713C65.1879 12.1157 74.8266 11.5791 76.9326 11.5791C77.2006 11.5791 77.3451 11.5867 77.3451 11.5867L77.3467 11.5867Z" fill="url(#paint0_linear_2773_50390)"/>
<path d="M62.0841 9.74288C62.0841 9.74288 47.8634 33.0118 40.753 44.6773C34.8935 54.2951 25.2155 54.8535 23.1087 54.8535C22.8454 54.8535 22.7137 54.8535 22.7137 54.8535L0 54.8535L4.15846e-06 9.43262C4.63565e-06 4.22039 3.95021 0.000965449 12.4432 0.000966159L65.771 0.000970618C65.771 2.91734 64.7834 6.26806 62.0841 9.74288Z" fill="#D2232A"/>
<defs>
<linearGradient id="paint0_linear_2773_50390" x1="27.0361" y1="17.0689" x2="64.303" y2="88.8649" gradientUnits="userSpaceOnUse">
<stop stop-color="#FFB490"/>
<stop offset="0.446877" stop-color="#F18477"/>
<stop offset="1" stop-color="#D2232A"/>
</linearGradient>
</defs>
</svg>
