<svg width="55" height="49" viewBox="0 0 55 49" fill="none" xmlns="http://www.w3.org/2000/svg">
<path d="M34.2334 23.2255V10.1204H5.90178C2.65585 10.1204 0 12.3927 0 17.3009V48.071C1.8152 48.0428 3.89818 47.5064 6.08828 45.9536C6.08828 45.9536 20.6261 37.737 27.8888 33.6432C33.9006 30.2596 34.2382 24.6834 34.2382 23.4651C34.2382 23.3101 34.2334 23.2265 34.2334 23.2265V23.2255Z" fill="url(#paint0_linear_157_33033)"/>
<path d="M26.786 23.576C34.1138 27.6895 48.8478 35.9163 48.8478 35.9163C51.0814 37.4779 53.1583 38.0111 55 38.0492L55 6.81763C54.8824 1.86628 52.257 3.26985e-08 49.0437 7.10024e-08L20.3986 4.12468e-07L20.3986 13.1401C20.3986 13.1401 19.9676 19.7673 26.8252 23.576L26.786 23.576Z" fill="#D2232A"/>
<path fill-rule="evenodd" clip-rule="evenodd" d="M33.3792 27.4687C30.9947 26.1497 28.7323 24.8971 26.916 23.8894H26.956C19.9629 20.0506 20.4025 13.3711 20.4025 13.3711L20.4025 10.1204H34.1484V23.3642V23.5946C34.1484 24.162 34.0717 25.6716 33.3792 27.4687Z" fill="#BB0007"/>
<defs>
<linearGradient id="paint0_linear_157_33033" x1="-6.69462" y1="2.00279" x2="48.0852" y2="62.7366" gradientUnits="userSpaceOnUse">
<stop stop-color="#D2232A"/>
<stop offset="0.471766" stop-color="#F18477"/>
<stop offset="1" stop-color="#FFB490"/>
</linearGradient>
</defs>
</svg>
